<?xml version="1.0" encoding="UTF-8"?>
<svg id="Layer_2" xmlns="http://www.w3.org/2000/svg" xmlns:xlink="http://www.w3.org/1999/xlink" viewBox="0 0 578.6 205.5">
  <defs>
    <style>
      .cls-1 {
        fill: #7bc6bd;
      }

      .cls-2 {
        fill: url(#linear-gradient);
      }
    </style>
    <linearGradient id="linear-gradient" x1="290.3" y1="235.9" x2="290.3" y2="-10.4" gradientUnits="userSpaceOnUse">
      <stop offset="0" stop-color="#f7ffe9"/>
      <stop offset=".1" stop-color="#eefee8"/>
      <stop offset=".3" stop-color="#d7fde8"/>
      <stop offset=".6" stop-color="#b1fbe8"/>
      <stop offset=".9" stop-color="#7ef8e8"/>
      <stop offset="1" stop-color="#70f8e8"/>
    </linearGradient>
  </defs>
  <path class="cls-2" d="M10.4,205.5l58.3-94.6c1.3-2.2,3.7-3.5,6.2-3.7l63.3-3c2,0,3.8-.9,5.2-2.3L218.9,24.6c1.5-1.5,3.6-2.4,5.7-2.3l91.1,2.6c2.5,0,4.7,1.3,6.1,3.3l35.2,51c2.6,3.8,8,4.5,11.5,1.4l22.7-20.3c2.3-2,5.6-2.5,8.4-1.3l71.8,32.8c3.9,1.8,5.6,6.4,3.8,10.3h0c-2.7,5.8,2.5,12.2,8.8,10.8l5.6-1.3c2.2-.5,4.4,0,6.2,1.2l71.1,50.4c2,1.4,3.3,3.8,3.3,6.3l-8.4,36"/>
  <path class="cls-1" d="M546.3,187.6s-1.8,17.8,15.4,17.8,15.9-10.1,16.5-14.8c.2-2.7.4-5.4.4-8.2,0-49.8-40.3-90.4-90.1-90.9-10.3-34-42-58.9-79.4-58.9s-32.5,5-45.6,13.7C337.8,17.9,300.6,0,259.3,0s-105.6,33.7-127.7,82.2c-6.3-1.1-12.9-1.7-19.5-1.7C51.1,80.5,1.3,129.4,0,190.1c.5,5.7,3.1,15.4,15.2,15.4s16.6-12.6,16.9-16.7c0-.4,0-.7,0-1.1,0-.1,0-.2,0-.2h0c2.6-41.8,37.4-75,79.9-75s6.5.2,9.6.6c7.2.9,14,2.7,20.5,5.3h0s9.7,3.9,12.1-4.2c0,0,0,0,0-.1,1.9-7.6,4.6-14.9,8-21.7,17.7-35.7,54.5-60.3,97-60.3s61.4,14.3,81.3,36.8c6.1,7,11.3,14.7,15.5,23.1h0s5.2,8.8,11.8,0c0,0,0,0,0,0,3.9-6.6,9.3-12.2,15.7-16.3,7.3-4.6,16-7.3,25.3-7.3,20.1,0,37.3,12.5,44.2,30.2,2.1,5.4,3.3,11.2,3.3,17.3s0,.6,0,.9c0,3.2.9,13.8,13.2,9.9,0,0,.1,0,.2,0,5.6-1.8,11.5-2.7,17.7-2.7s2.7,0,4,.2c30.6,2.1,54.9,27.6,54.9,58.7s0,3.5-.2,5.2h0Z"/>
</svg>