<?xml version="1.0" encoding="UTF-8"?>
<svg id="Layer_2" xmlns="http://www.w3.org/2000/svg" xmlns:xlink="http://www.w3.org/1999/xlink" viewBox="0 0 577.9 205.5">
  <defs>
    <style>
      .cls-1 {
        fill: url(#linear-gradient);
      }
    </style>
    <linearGradient id="linear-gradient" x1="0" y1="102.7" x2="577.9" y2="102.7" gradientUnits="userSpaceOnUse">
      <stop offset="0" stop-color="#34ff00"/>
      <stop offset="1" stop-color="#00c500"/>
    </linearGradient>
  </defs>
  <path class="cls-1" d="M545.6,187.6s-1.8,17.8,15.4,17.8,15.9-10.1,16.5-14.8c.2-2.7.4-5.4.4-8.2,0-49.8-40.3-90.4-90-90.9-10.3-34-42-58.9-79.3-58.9s-32.4,5-45.5,13.7C337.4,17.9,300.2,0,259,0s-105.4,33.7-127.5,82.2c-6.3-1.1-12.9-1.7-19.5-1.7C51,80.5,1.3,129.4,0,190.1c.5,5.7,3.1,15.4,15.2,15.4s16.6-12.6,16.9-16.7c0-.4,0-.7,0-1.1,0-.1,0-.2,0-.2h0c2.6-41.8,37.4-75,79.8-75s6.5.2,9.6.6c7.1.9,14,2.7,20.4,5.3h0s9.7,3.9,12.1-4.2c0,0,0,0,0-.1,1.9-7.6,4.6-14.9,7.9-21.7,17.6-35.7,54.4-60.3,96.9-60.3s61.4,14.3,81.2,36.8c6.1,7,11.3,14.7,15.5,23.1h0s5.2,8.8,11.8,0c0,0,0,0,0,0,3.9-6.6,9.3-12.2,15.7-16.3,7.3-4.6,16-7.3,25.3-7.3,20.1,0,37.3,12.5,44.2,30.2,2.1,5.4,3.3,11.2,3.3,17.3s0,.6,0,.9c0,3.2.9,13.8,13.2,9.9,0,0,.1,0,.2,0,5.6-1.8,11.5-2.7,17.7-2.7s2.7,0,4,.2c30.6,2.1,54.9,27.6,54.9,58.7s0,3.5-.2,5.2h0Z"/>
</svg>